<svg xmlns="http://www.w3.org/2000/svg" xmlns:xlink="http://www.w3.org/1999/xlink" width="1024" zoomAndPan="magnify" viewBox="0 0 768 767.999994" height="1024" preserveAspectRatio="xMidYMid meet" version="1.0"><defs><clipPath id="8b98688738"><path d="M 65.171875 64.589844 L 702.671875 64.589844 L 702.671875 703 L 65.171875 703 Z M 65.171875 64.589844 " clip-rule="nonzero"/></clipPath></defs><g clip-path="url(#8b98688738)"><path fill="#007c29" d="M 383.984375 558.675781 C 480.832031 558.675781 559.339844 480.167969 559.339844 383.320312 L 559.339844 239.851562 C 559.339844 222.238281 545.0625 207.976562 527.464844 207.976562 L 383.984375 207.976562 C 287.148438 207.976562 208.640625 286.484375 208.640625 383.320312 L 208.640625 669.535156 C 208.640625 687.414062 223.265625 702.460938 241.140625 702.128906 C 258.460938 701.796875 272.40625 687.652344 272.40625 670.253906 L 272.40625 558.675781 Z M 383.984375 271.738281 L 495.578125 271.738281 L 495.578125 383.320312 C 495.578125 444.945312 445.609375 494.910156 383.984375 494.910156 L 272.40625 494.910156 L 272.40625 383.320312 C 272.40625 321.691406 322.359375 271.738281 383.984375 271.738281 Z M 702.808594 96.382812 L 702.808594 383.320312 C 702.808594 558.941406 560.058594 701.863281 384.503906 702.144531 C 367.105469 702.167969 352.46875 688.316406 352.109375 670.917969 C 351.75 653.015625 366.160156 638.390625 383.984375 638.390625 C 524.625 638.390625 639.042969 523.96875 639.042969 383.332031 L 639.042969 128.273438 L 383.984375 128.273438 C 243.121094 128.273438 128.9375 242.46875 128.9375 383.320312 L 128.9375 669.363281 C 128.9375 688.222656 113.492188 703.429688 94.683594 702.050781 C 78.191406 700.839844 65.171875 687.066406 65.171875 670.265625 L 65.171875 383.320312 C 65.171875 207.246094 207.910156 64.507812 383.984375 64.507812 L 670.917969 64.507812 C 688.53125 64.507812 702.808594 78.785156 702.808594 96.382812 Z M 702.808594 96.382812 " fill-opacity="1" fill-rule="nonzero"/></g></svg>